<?xml version="1.0" encoding="UTF-8" standalone="no"?>
<!-- Created with Inkscape (http://www.inkscape.org/) -->

<svg
   xmlns:dc="http://purl.org/dc/elements/1.1/"
   xmlns:cc="http://creativecommons.org/ns#"
   xmlns:rdf="http://www.w3.org/1999/02/22-rdf-syntax-ns#"
   xmlns:svg="http://www.w3.org/2000/svg"
   xmlns="http://www.w3.org/2000/svg"
   xmlns:xlink="http://www.w3.org/1999/xlink"
   xmlns:sodipodi="http://sodipodi.sourceforge.net/DTD/sodipodi-0.dtd"
   xmlns:inkscape="http://www.inkscape.org/namespaces/inkscape"
   width="180"
   height="120"
   viewBox="0 0 180 120"
   id="svg2"
   version="1.1"
   inkscape:version="0.91 r13725"
   sodipodi:docname="Promo_graphic.svg"
   inkscape:export-filename="/home/zed/Projects/McCollough-effect/play_store/graphics/promo_graphic.png"
   inkscape:export-xdpi="90"
   inkscape:export-ydpi="90">
  <defs
     id="defs4">
    <radialGradient
       inkscape:collect="always"
       xlink:href="#linearGradient6239"
       id="radialGradient6017"
       gradientUnits="userSpaceOnUse"
       gradientTransform="matrix(2.243014,0.01326215,-0.01415052,2.3932611,1638.3324,-2931.7728)"
       cx="-1181.257"
       cy="1272.4155"
       fx="-1174.8926"
       fy="1272.7529"
       r="76.107971" />
    <linearGradient
       inkscape:collect="always"
       id="linearGradient6239">
      <stop
         style="stop-color:#000000;stop-opacity:1;"
         offset="0"
         id="stop6241" />
      <stop
         style="stop-color:#000000;stop-opacity:0;"
         offset="1"
         id="stop6243" />
    </linearGradient>
  </defs>
  <sodipodi:namedview
     id="base"
     pagecolor="#ffffff"
     bordercolor="#666666"
     borderopacity="1.0"
     inkscape:pageopacity="0.0"
     inkscape:pageshadow="2"
     inkscape:zoom="2.8"
     inkscape:cx="47.893489"
     inkscape:cy="17.676922"
     inkscape:document-units="px"
     inkscape:current-layer="layer1"
     showgrid="false"
     units="px"
     borderlayer="true"
     inkscape:showpageshadow="false"
     inkscape:window-width="1855"
     inkscape:window-height="1056"
     inkscape:window-x="65"
     inkscape:window-y="24"
     inkscape:window-maximized="1" />
  <metadata
     id="metadata7">
    <rdf:RDF>
      <cc:Work
         rdf:about="">
        <dc:format>image/svg+xml</dc:format>
        <dc:type
           rdf:resource="http://purl.org/dc/dcmitype/StillImage" />
        <dc:title></dc:title>
      </cc:Work>
    </rdf:RDF>
  </metadata>
  <g
     inkscape:label="Layer 1"
     inkscape:groupmode="layer"
     id="layer1"
     transform="translate(0,-932.36216)">
    <rect
       style="opacity:1;fill:#4caf50;fill-opacity:1;stroke:none;stroke-width:1;stroke-linejoin:round;stroke-miterlimit:4;stroke-dasharray:none;stroke-opacity:1"
       id="rect4617"
       width="111.07143"
       height="179.64285"
       x="111.07143"
       y="918.07642" />
    <rect
       y="917.7193"
       x="-13.214288"
       height="179.64285"
       width="111.07143"
       id="rect4619"
       style="opacity:1;fill:#f44336;fill-opacity:1;stroke:none;stroke-width:1;stroke-linejoin:round;stroke-miterlimit:4;stroke-dasharray:none;stroke-opacity:1" />
    <g
       id="g4475"
       transform="matrix(1.7142859,0,0,1.7142859,-91.224505,-809.85073)">
      <rect
         y="1016.2907"
         x="138.71428"
         height="35"
         width="1"
         id="rect2987"
         style="fill:#000000;fill-opacity:1;fill-rule:nonzero;stroke:none" />
      <rect
         y="1016.2907"
         x="136.71428"
         height="35"
         width="1"
         id="rect2987-1"
         style="fill:#000000;fill-opacity:1;fill-rule:nonzero;stroke:none" />
      <rect
         y="1016.2907"
         x="134.71428"
         height="35"
         width="1"
         id="rect2987-7"
         style="fill:#000000;fill-opacity:1;fill-rule:nonzero;stroke:none" />
      <rect
         y="1016.2907"
         x="132.71428"
         height="35"
         width="1"
         id="rect2987-4"
         style="fill:#000000;fill-opacity:1;fill-rule:nonzero;stroke:none" />
      <rect
         y="1016.2907"
         x="130.71428"
         height="35"
         width="1"
         id="rect2987-0"
         style="fill:#000000;fill-opacity:1;fill-rule:nonzero;stroke:none" />
      <rect
         y="1016.2907"
         x="128.71428"
         height="35"
         width="1"
         id="rect2987-9"
         style="fill:#000000;fill-opacity:1;fill-rule:nonzero;stroke:none" />
      <rect
         y="1016.2907"
         x="126.71429"
         height="35"
         width="1"
         id="rect2987-48"
         style="fill:#000000;fill-opacity:1;fill-rule:nonzero;stroke:none" />
      <rect
         y="1016.2907"
         x="124.71429"
         height="35"
         width="1"
         id="rect2987-8"
         style="fill:#000000;fill-opacity:1;fill-rule:nonzero;stroke:none" />
      <rect
         y="1016.2907"
         x="122.71429"
         height="35"
         width="1"
         id="rect2987-2"
         style="fill:#000000;fill-opacity:1;fill-rule:nonzero;stroke:none" />
      <rect
         y="1016.2907"
         x="120.71429"
         height="35"
         width="1"
         id="rect2987-45"
         style="fill:#000000;fill-opacity:1;fill-rule:nonzero;stroke:none" />
      <rect
         y="1016.2907"
         x="118.71429"
         height="35"
         width="1"
         id="rect2987-5"
         style="fill:#000000;fill-opacity:1;fill-rule:nonzero;stroke:none" />
      <rect
         y="1016.2907"
         x="116.71429"
         height="35"
         width="1"
         id="rect2987-17"
         style="fill:#000000;fill-opacity:1;fill-rule:nonzero;stroke:none" />
      <rect
         y="1016.2907"
         x="114.71429"
         height="35"
         width="1"
         id="rect2987-11"
         style="fill:#000000;fill-opacity:1;fill-rule:nonzero;stroke:none" />
      <rect
         y="1016.2907"
         x="112.71429"
         height="35"
         width="1"
         id="rect2987-52"
         style="fill:#000000;fill-opacity:1;fill-rule:nonzero;stroke:none" />
      <rect
         y="1016.2907"
         x="110.71429"
         height="35"
         width="1"
         id="rect2987-76"
         style="fill:#000000;fill-opacity:1;fill-rule:nonzero;stroke:none" />
      <rect
         y="1016.2907"
         x="108.71429"
         height="35"
         width="1"
         id="rect2987-14"
         style="fill:#000000;fill-opacity:1;fill-rule:nonzero;stroke:none" />
      <rect
         y="1016.2907"
         x="106.71429"
         height="35"
         width="1"
         id="rect2987-23"
         style="fill:#000000;fill-opacity:1;fill-rule:nonzero;stroke:none" />
      <rect
         y="1051.2908"
         x="103.71429"
         height="35"
         width="1"
         id="rect2987-22"
         style="fill:#000000;fill-opacity:1;fill-rule:nonzero;stroke:none" />
      <rect
         y="1051.2908"
         x="101.71429"
         height="35"
         width="1"
         id="rect2987-1-1"
         style="fill:#000000;fill-opacity:1;fill-rule:nonzero;stroke:none" />
      <rect
         y="1051.2908"
         x="99.714287"
         height="35"
         width="1"
         id="rect2987-7-6"
         style="fill:#000000;fill-opacity:1;fill-rule:nonzero;stroke:none" />
      <rect
         y="1051.2908"
         x="97.714287"
         height="35"
         width="1"
         id="rect2987-4-8"
         style="fill:#000000;fill-opacity:1;fill-rule:nonzero;stroke:none" />
      <rect
         y="1051.2908"
         x="95.714287"
         height="35"
         width="1"
         id="rect2987-0-5"
         style="fill:#000000;fill-opacity:1;fill-rule:nonzero;stroke:none" />
      <rect
         y="1051.2908"
         x="93.714287"
         height="35"
         width="1"
         id="rect2987-9-7"
         style="fill:#000000;fill-opacity:1;fill-rule:nonzero;stroke:none" />
      <rect
         y="1051.2908"
         x="91.714287"
         height="35"
         width="1"
         id="rect2987-48-6"
         style="fill:#000000;fill-opacity:1;fill-rule:nonzero;stroke:none" />
      <rect
         y="1051.2908"
         x="89.714287"
         height="35"
         width="1"
         id="rect2987-8-1"
         style="fill:#000000;fill-opacity:1;fill-rule:nonzero;stroke:none" />
      <rect
         y="1051.2908"
         x="87.714287"
         height="35"
         width="1"
         id="rect2987-2-8"
         style="fill:#000000;fill-opacity:1;fill-rule:nonzero;stroke:none" />
      <rect
         y="1051.2908"
         x="85.714287"
         height="35"
         width="1"
         id="rect2987-45-9"
         style="fill:#000000;fill-opacity:1;fill-rule:nonzero;stroke:none" />
      <rect
         y="1051.2908"
         x="83.714287"
         height="35"
         width="1"
         id="rect2987-5-2"
         style="fill:#000000;fill-opacity:1;fill-rule:nonzero;stroke:none" />
      <rect
         y="1051.2908"
         x="81.714287"
         height="35"
         width="1"
         id="rect2987-17-7"
         style="fill:#000000;fill-opacity:1;fill-rule:nonzero;stroke:none" />
      <rect
         y="1051.2908"
         x="79.714287"
         height="35"
         width="1"
         id="rect2987-11-9"
         style="fill:#000000;fill-opacity:1;fill-rule:nonzero;stroke:none" />
      <rect
         y="1051.2908"
         x="77.714287"
         height="35"
         width="1"
         id="rect2987-52-5"
         style="fill:#000000;fill-opacity:1;fill-rule:nonzero;stroke:none" />
      <rect
         y="1051.2908"
         x="75.714287"
         height="35"
         width="1"
         id="rect2987-76-4"
         style="fill:#000000;fill-opacity:1;fill-rule:nonzero;stroke:none" />
      <rect
         y="1051.2908"
         x="73.714287"
         height="35"
         width="1"
         id="rect2987-14-3"
         style="fill:#000000;fill-opacity:1;fill-rule:nonzero;stroke:none" />
      <rect
         y="1051.2908"
         x="71.714287"
         height="35"
         width="1"
         id="rect2987-23-1"
         style="fill:#000000;fill-opacity:1;fill-rule:nonzero;stroke:none" />
      <rect
         transform="matrix(0,-1,-1,0,0,0)"
         style="fill:#000000;fill-opacity:1;fill-rule:nonzero;stroke:none"
         id="rect3178"
         width="1"
         height="35"
         x="-1053.2908"
         y="-140.71428" />
      <rect
         transform="matrix(0,-1,-1,0,0,0)"
         style="fill:#000000;fill-opacity:1;fill-rule:nonzero;stroke:none"
         id="rect3180"
         width="1"
         height="35"
         x="-1055.2908"
         y="-140.71428" />
      <rect
         transform="matrix(0,-1,-1,0,0,0)"
         style="fill:#000000;fill-opacity:1;fill-rule:nonzero;stroke:none"
         id="rect3182"
         width="1"
         height="35"
         x="-1057.2908"
         y="-140.71428" />
      <rect
         transform="matrix(0,-1,-1,0,0,0)"
         style="fill:#000000;fill-opacity:1;fill-rule:nonzero;stroke:none"
         id="rect3184"
         width="1"
         height="35"
         x="-1059.2908"
         y="-140.71428" />
      <rect
         transform="matrix(0,-1,-1,0,0,0)"
         style="fill:#000000;fill-opacity:1;fill-rule:nonzero;stroke:none"
         id="rect3186"
         width="1"
         height="35"
         x="-1061.2908"
         y="-140.71428" />
      <rect
         transform="matrix(0,-1,-1,0,0,0)"
         style="fill:#000000;fill-opacity:1;fill-rule:nonzero;stroke:none"
         id="rect3188"
         width="1"
         height="35"
         x="-1063.2908"
         y="-140.71428" />
      <rect
         transform="matrix(0,-1,-1,0,0,0)"
         style="fill:#000000;fill-opacity:1;fill-rule:nonzero;stroke:none"
         id="rect3190"
         width="1"
         height="35"
         x="-1065.2908"
         y="-140.71428" />
      <rect
         transform="matrix(0,-1,-1,0,0,0)"
         style="fill:#000000;fill-opacity:1;fill-rule:nonzero;stroke:none"
         id="rect3192"
         width="1"
         height="35"
         x="-1067.2908"
         y="-140.71428" />
      <rect
         transform="matrix(0,-1,-1,0,0,0)"
         style="fill:#000000;fill-opacity:1;fill-rule:nonzero;stroke:none"
         id="rect3194"
         width="1"
         height="35"
         x="-1069.2908"
         y="-140.71428" />
      <rect
         transform="matrix(0,-1,-1,0,0,0)"
         style="fill:#000000;fill-opacity:1;fill-rule:nonzero;stroke:none"
         id="rect3196"
         width="1"
         height="35"
         x="-1071.2908"
         y="-140.71428" />
      <rect
         transform="matrix(0,-1,-1,0,0,0)"
         style="fill:#000000;fill-opacity:1;fill-rule:nonzero;stroke:none"
         id="rect3198"
         width="1"
         height="35"
         x="-1073.2908"
         y="-140.71428" />
      <rect
         transform="matrix(0,-1,-1,0,0,0)"
         style="fill:#000000;fill-opacity:1;fill-rule:nonzero;stroke:none"
         id="rect3200"
         width="1"
         height="35"
         x="-1075.2908"
         y="-140.71428" />
      <rect
         transform="matrix(0,-1,-1,0,0,0)"
         style="fill:#000000;fill-opacity:1;fill-rule:nonzero;stroke:none"
         id="rect3202"
         width="1"
         height="35"
         x="-1077.2908"
         y="-140.71428" />
      <rect
         transform="matrix(0,-1,-1,0,0,0)"
         style="fill:#000000;fill-opacity:1;fill-rule:nonzero;stroke:none"
         id="rect3204"
         width="1"
         height="35"
         x="-1079.2908"
         y="-140.71428" />
      <rect
         transform="matrix(0,-1,-1,0,0,0)"
         style="fill:#000000;fill-opacity:1;fill-rule:nonzero;stroke:none"
         id="rect3206"
         width="1"
         height="35"
         x="-1081.2908"
         y="-140.71428" />
      <rect
         transform="matrix(0,-1,-1,0,0,0)"
         style="fill:#000000;fill-opacity:1;fill-rule:nonzero;stroke:none"
         id="rect3208"
         width="1"
         height="35"
         x="-1083.2908"
         y="-140.71428" />
      <rect
         transform="matrix(0,-1,-1,0,0,0)"
         style="fill:#000000;fill-opacity:1;fill-rule:nonzero;stroke:none"
         id="rect3210"
         width="1"
         height="35"
         x="-1085.2908"
         y="-140.71428" />
      <rect
         transform="matrix(0,-1,-1,0,0,0)"
         style="fill:#000000;fill-opacity:1;fill-rule:nonzero;stroke:none"
         id="rect3178-2"
         width="1"
         height="35"
         x="-1018.2907"
         y="-105.71429" />
      <rect
         transform="matrix(0,-1,-1,0,0,0)"
         style="fill:#000000;fill-opacity:1;fill-rule:nonzero;stroke:none"
         id="rect3180-3"
         width="1"
         height="35"
         x="-1020.2907"
         y="-105.71429" />
      <rect
         transform="matrix(0,-1,-1,0,0,0)"
         style="fill:#000000;fill-opacity:1;fill-rule:nonzero;stroke:none"
         id="rect3182-3"
         width="1"
         height="35"
         x="-1022.2907"
         y="-105.71429" />
      <rect
         transform="matrix(0,-1,-1,0,0,0)"
         style="fill:#000000;fill-opacity:1;fill-rule:nonzero;stroke:none"
         id="rect3184-4"
         width="1"
         height="35"
         x="-1024.2908"
         y="-105.71429" />
      <rect
         transform="matrix(0,-1,-1,0,0,0)"
         style="fill:#000000;fill-opacity:1;fill-rule:nonzero;stroke:none"
         id="rect3186-1"
         width="1"
         height="35"
         x="-1026.2908"
         y="-105.71429" />
      <rect
         transform="matrix(0,-1,-1,0,0,0)"
         style="fill:#000000;fill-opacity:1;fill-rule:nonzero;stroke:none"
         id="rect3188-1"
         width="1"
         height="35"
         x="-1028.2908"
         y="-105.71429" />
      <rect
         transform="matrix(0,-1,-1,0,0,0)"
         style="fill:#000000;fill-opacity:1;fill-rule:nonzero;stroke:none"
         id="rect3190-3"
         width="1"
         height="35"
         x="-1030.2908"
         y="-105.71429" />
      <rect
         transform="matrix(0,-1,-1,0,0,0)"
         style="fill:#000000;fill-opacity:1;fill-rule:nonzero;stroke:none"
         id="rect3192-8"
         width="1"
         height="35"
         x="-1032.2908"
         y="-105.71429" />
      <rect
         transform="matrix(0,-1,-1,0,0,0)"
         style="fill:#000000;fill-opacity:1;fill-rule:nonzero;stroke:none"
         id="rect3194-7"
         width="1"
         height="35"
         x="-1034.2908"
         y="-105.71429" />
      <rect
         transform="matrix(0,-1,-1,0,0,0)"
         style="fill:#000000;fill-opacity:1;fill-rule:nonzero;stroke:none"
         id="rect3196-4"
         width="1"
         height="35"
         x="-1036.2908"
         y="-105.71429" />
      <rect
         transform="matrix(0,-1,-1,0,0,0)"
         style="fill:#000000;fill-opacity:1;fill-rule:nonzero;stroke:none"
         id="rect3198-2"
         width="1"
         height="35"
         x="-1038.2908"
         y="-105.71429" />
      <rect
         transform="matrix(0,-1,-1,0,0,0)"
         style="fill:#000000;fill-opacity:1;fill-rule:nonzero;stroke:none"
         id="rect3200-7"
         width="1"
         height="35"
         x="-1040.2908"
         y="-105.71429" />
      <rect
         transform="matrix(0,-1,-1,0,0,0)"
         style="fill:#000000;fill-opacity:1;fill-rule:nonzero;stroke:none"
         id="rect3202-7"
         width="1"
         height="35"
         x="-1042.2908"
         y="-105.71429" />
      <rect
         transform="matrix(0,-1,-1,0,0,0)"
         style="fill:#000000;fill-opacity:1;fill-rule:nonzero;stroke:none"
         id="rect3204-9"
         width="1"
         height="35"
         x="-1044.2908"
         y="-105.71429" />
      <rect
         transform="matrix(0,-1,-1,0,0,0)"
         style="fill:#000000;fill-opacity:1;fill-rule:nonzero;stroke:none"
         id="rect3206-3"
         width="1"
         height="35"
         x="-1046.2908"
         y="-105.71429" />
      <rect
         transform="matrix(0,-1,-1,0,0,0)"
         style="fill:#000000;fill-opacity:1;fill-rule:nonzero;stroke:none"
         id="rect3208-1"
         width="1"
         height="35"
         x="-1048.2908"
         y="-105.71429" />
      <rect
         transform="matrix(0,-1,-1,0,0,0)"
         style="fill:#000000;fill-opacity:1;fill-rule:nonzero;stroke:none"
         id="rect3210-9"
         width="1"
         height="35"
         x="-1050.2908"
         y="-105.71429" />
      <rect
         y="-140.71428"
         x="-1054.2908"
         height="35"
         width="1"
         id="rect3278"
         style="fill:#ffffff;fill-opacity:1;fill-rule:nonzero;stroke:none"
         transform="matrix(0,-1,-1,0,0,0)" />
      <rect
         y="-140.71428"
         x="-1056.2908"
         height="35"
         width="1"
         id="rect3280"
         style="fill:#ffffff;fill-opacity:1;fill-rule:nonzero;stroke:none"
         transform="matrix(0,-1,-1,0,0,0)" />
      <rect
         y="-140.71428"
         x="-1058.2908"
         height="35"
         width="1"
         id="rect3282"
         style="fill:#ffffff;fill-opacity:1;fill-rule:nonzero;stroke:none"
         transform="matrix(0,-1,-1,0,0,0)" />
      <rect
         y="-140.71428"
         x="-1060.2908"
         height="35"
         width="1"
         id="rect3284"
         style="fill:#ffffff;fill-opacity:1;fill-rule:nonzero;stroke:none"
         transform="matrix(0,-1,-1,0,0,0)" />
      <rect
         y="-140.71428"
         x="-1062.2908"
         height="35"
         width="1"
         id="rect3286"
         style="fill:#ffffff;fill-opacity:1;fill-rule:nonzero;stroke:none"
         transform="matrix(0,-1,-1,0,0,0)" />
      <rect
         y="-140.71428"
         x="-1064.2908"
         height="35"
         width="1"
         id="rect3288"
         style="fill:#ffffff;fill-opacity:1;fill-rule:nonzero;stroke:none"
         transform="matrix(0,-1,-1,0,0,0)" />
      <rect
         y="-140.71428"
         x="-1066.2908"
         height="35"
         width="1"
         id="rect3290"
         style="fill:#ffffff;fill-opacity:1;fill-rule:nonzero;stroke:none"
         transform="matrix(0,-1,-1,0,0,0)" />
      <rect
         y="-140.71428"
         x="-1068.2908"
         height="35"
         width="1"
         id="rect3292"
         style="fill:#ffffff;fill-opacity:1;fill-rule:nonzero;stroke:none"
         transform="matrix(0,-1,-1,0,0,0)" />
      <rect
         y="-140.71428"
         x="-1070.2908"
         height="35"
         width="1"
         id="rect3294"
         style="fill:#ffffff;fill-opacity:1;fill-rule:nonzero;stroke:none"
         transform="matrix(0,-1,-1,0,0,0)" />
      <rect
         y="-140.71428"
         x="-1072.2908"
         height="35"
         width="1"
         id="rect3296"
         style="fill:#ffffff;fill-opacity:1;fill-rule:nonzero;stroke:none"
         transform="matrix(0,-1,-1,0,0,0)" />
      <rect
         y="-140.71428"
         x="-1074.2908"
         height="35"
         width="1"
         id="rect3298"
         style="fill:#ffffff;fill-opacity:1;fill-rule:nonzero;stroke:none"
         transform="matrix(0,-1,-1,0,0,0)" />
      <rect
         y="-140.71428"
         x="-1076.2908"
         height="35"
         width="1"
         id="rect3300"
         style="fill:#ffffff;fill-opacity:1;fill-rule:nonzero;stroke:none"
         transform="matrix(0,-1,-1,0,0,0)" />
      <rect
         y="-140.71428"
         x="-1078.2908"
         height="35"
         width="1"
         id="rect3302"
         style="fill:#ffffff;fill-opacity:1;fill-rule:nonzero;stroke:none"
         transform="matrix(0,-1,-1,0,0,0)" />
      <rect
         y="-140.71428"
         x="-1080.2908"
         height="35"
         width="1"
         id="rect3304"
         style="fill:#ffffff;fill-opacity:1;fill-rule:nonzero;stroke:none"
         transform="matrix(0,-1,-1,0,0,0)" />
      <rect
         y="-140.71428"
         x="-1082.2908"
         height="35"
         width="1"
         id="rect3306"
         style="fill:#ffffff;fill-opacity:1;fill-rule:nonzero;stroke:none"
         transform="matrix(0,-1,-1,0,0,0)" />
      <rect
         y="-140.71428"
         x="-1084.2908"
         height="35"
         width="1"
         id="rect3308"
         style="fill:#ffffff;fill-opacity:1;fill-rule:nonzero;stroke:none"
         transform="matrix(0,-1,-1,0,0,0)" />
      <rect
         y="-140.71428"
         x="-1086.2908"
         height="35"
         width="1"
         id="rect3310"
         style="fill:#ffffff;fill-opacity:1;fill-rule:nonzero;stroke:none"
         transform="matrix(0,-1,-1,0,0,0)" />
      <rect
         y="-140.71428"
         x="-1052.2908"
         height="35"
         width="1"
         id="rect3278-8"
         style="fill:#ffffff;fill-opacity:1;fill-rule:nonzero;stroke:none"
         transform="matrix(0,-1,-1,0,0,0)" />
      <rect
         y="-105.71429"
         x="-1017.2907"
         height="35"
         width="1"
         id="rect3330"
         style="fill:#ffffff;fill-opacity:1;fill-rule:nonzero;stroke:none"
         transform="matrix(0,-1,-1,0,0,0)" />
      <rect
         y="-105.71429"
         x="-1019.2907"
         height="35"
         width="1"
         id="rect3332"
         style="fill:#ffffff;fill-opacity:1;fill-rule:nonzero;stroke:none"
         transform="matrix(0,-1,-1,0,0,0)" />
      <rect
         y="-105.71429"
         x="-1021.2907"
         height="35"
         width="1"
         id="rect3334"
         style="fill:#ffffff;fill-opacity:1;fill-rule:nonzero;stroke:none"
         transform="matrix(0,-1,-1,0,0,0)" />
      <rect
         y="-105.71429"
         x="-1023.2907"
         height="35"
         width="1"
         id="rect3336"
         style="fill:#ffffff;fill-opacity:1;fill-rule:nonzero;stroke:none"
         transform="matrix(0,-1,-1,0,0,0)" />
      <rect
         y="-105.71429"
         x="-1025.2908"
         height="35"
         width="1"
         id="rect3338"
         style="fill:#ffffff;fill-opacity:1;fill-rule:nonzero;stroke:none"
         transform="matrix(0,-1,-1,0,0,0)" />
      <rect
         y="-105.71429"
         x="-1027.2908"
         height="35"
         width="1"
         id="rect3340"
         style="fill:#ffffff;fill-opacity:1;fill-rule:nonzero;stroke:none"
         transform="matrix(0,-1,-1,0,0,0)" />
      <rect
         y="-105.71429"
         x="-1029.2908"
         height="35"
         width="1"
         id="rect3342"
         style="fill:#ffffff;fill-opacity:1;fill-rule:nonzero;stroke:none"
         transform="matrix(0,-1,-1,0,0,0)" />
      <rect
         y="-105.71429"
         x="-1031.2908"
         height="35"
         width="1"
         id="rect3344"
         style="fill:#ffffff;fill-opacity:1;fill-rule:nonzero;stroke:none"
         transform="matrix(0,-1,-1,0,0,0)" />
      <rect
         y="-105.71429"
         x="-1033.2908"
         height="35"
         width="1"
         id="rect3346"
         style="fill:#ffffff;fill-opacity:1;fill-rule:nonzero;stroke:none"
         transform="matrix(0,-1,-1,0,0,0)" />
      <rect
         y="-105.71429"
         x="-1035.2908"
         height="35"
         width="1"
         id="rect3348"
         style="fill:#ffffff;fill-opacity:1;fill-rule:nonzero;stroke:none"
         transform="matrix(0,-1,-1,0,0,0)" />
      <rect
         y="-105.71429"
         x="-1037.2908"
         height="35"
         width="1"
         id="rect3350"
         style="fill:#ffffff;fill-opacity:1;fill-rule:nonzero;stroke:none"
         transform="matrix(0,-1,-1,0,0,0)" />
      <rect
         y="-105.71429"
         x="-1039.2908"
         height="35"
         width="1"
         id="rect3352"
         style="fill:#ffffff;fill-opacity:1;fill-rule:nonzero;stroke:none"
         transform="matrix(0,-1,-1,0,0,0)" />
      <rect
         y="-105.71429"
         x="-1041.2908"
         height="35"
         width="1"
         id="rect3354"
         style="fill:#ffffff;fill-opacity:1;fill-rule:nonzero;stroke:none"
         transform="matrix(0,-1,-1,0,0,0)" />
      <rect
         y="-105.71429"
         x="-1043.2908"
         height="35"
         width="1"
         id="rect3356"
         style="fill:#ffffff;fill-opacity:1;fill-rule:nonzero;stroke:none"
         transform="matrix(0,-1,-1,0,0,0)" />
      <rect
         y="-105.71429"
         x="-1045.2908"
         height="35"
         width="1"
         id="rect3358"
         style="fill:#ffffff;fill-opacity:1;fill-rule:nonzero;stroke:none"
         transform="matrix(0,-1,-1,0,0,0)" />
      <rect
         y="-105.71429"
         x="-1047.2908"
         height="35"
         width="1"
         id="rect3360"
         style="fill:#ffffff;fill-opacity:1;fill-rule:nonzero;stroke:none"
         transform="matrix(0,-1,-1,0,0,0)" />
      <rect
         y="-105.71429"
         x="-1049.2908"
         height="35"
         width="1"
         id="rect3362"
         style="fill:#ffffff;fill-opacity:1;fill-rule:nonzero;stroke:none"
         transform="matrix(0,-1,-1,0,0,0)" />
      <rect
         y="-105.71429"
         x="-1051.2908"
         height="35"
         width="1"
         id="rect3362-6"
         style="fill:#ffffff;fill-opacity:1;fill-rule:nonzero;stroke:none"
         transform="matrix(0,-1,-1,0,0,0)" />
      <rect
         y="1051.2908"
         x="102.71429"
         height="35"
         width="1"
         id="rect2987-22-5"
         style="fill:#ffffff;fill-opacity:1;fill-rule:nonzero;stroke:none" />
      <rect
         y="1051.2908"
         x="100.71429"
         height="35"
         width="1"
         id="rect2987-1-1-0"
         style="fill:#ffffff;fill-opacity:1;fill-rule:nonzero;stroke:none" />
      <rect
         y="1051.2908"
         x="98.714287"
         height="35"
         width="1"
         id="rect2987-7-6-2"
         style="fill:#ffffff;fill-opacity:1;fill-rule:nonzero;stroke:none" />
      <rect
         y="1051.2908"
         x="96.714287"
         height="35"
         width="1"
         id="rect2987-4-8-8"
         style="fill:#ffffff;fill-opacity:1;fill-rule:nonzero;stroke:none" />
      <rect
         y="1051.2908"
         x="94.714287"
         height="35"
         width="1"
         id="rect2987-0-5-6"
         style="fill:#ffffff;fill-opacity:1;fill-rule:nonzero;stroke:none" />
      <rect
         y="1051.2908"
         x="92.714287"
         height="35"
         width="1"
         id="rect2987-9-7-0"
         style="fill:#ffffff;fill-opacity:1;fill-rule:nonzero;stroke:none" />
      <rect
         y="1051.2908"
         x="90.714287"
         height="35"
         width="1"
         id="rect2987-48-6-2"
         style="fill:#ffffff;fill-opacity:1;fill-rule:nonzero;stroke:none" />
      <rect
         y="1051.2908"
         x="88.714287"
         height="35"
         width="1"
         id="rect2987-8-1-4"
         style="fill:#ffffff;fill-opacity:1;fill-rule:nonzero;stroke:none" />
      <rect
         y="1051.2908"
         x="86.714287"
         height="35"
         width="1"
         id="rect2987-2-8-8"
         style="fill:#ffffff;fill-opacity:1;fill-rule:nonzero;stroke:none" />
      <rect
         y="1051.2908"
         x="84.714287"
         height="35"
         width="1"
         id="rect2987-45-9-6"
         style="fill:#ffffff;fill-opacity:1;fill-rule:nonzero;stroke:none" />
      <rect
         y="1051.2908"
         x="82.714287"
         height="35"
         width="1"
         id="rect2987-5-2-5"
         style="fill:#ffffff;fill-opacity:1;fill-rule:nonzero;stroke:none" />
      <rect
         y="1051.2908"
         x="80.714287"
         height="35"
         width="1"
         id="rect2987-17-7-0"
         style="fill:#ffffff;fill-opacity:1;fill-rule:nonzero;stroke:none" />
      <rect
         y="1051.2908"
         x="78.714287"
         height="35"
         width="1"
         id="rect2987-11-9-9"
         style="fill:#ffffff;fill-opacity:1;fill-rule:nonzero;stroke:none" />
      <rect
         y="1051.2908"
         x="76.714287"
         height="35"
         width="1"
         id="rect2987-52-5-0"
         style="fill:#ffffff;fill-opacity:1;fill-rule:nonzero;stroke:none" />
      <rect
         y="1051.2908"
         x="74.714287"
         height="35"
         width="1"
         id="rect2987-76-4-0"
         style="fill:#ffffff;fill-opacity:1;fill-rule:nonzero;stroke:none" />
      <rect
         y="1051.2908"
         x="72.714287"
         height="35"
         width="1"
         id="rect2987-14-3-6"
         style="fill:#ffffff;fill-opacity:1;fill-rule:nonzero;stroke:none" />
      <rect
         y="1051.2908"
         x="70.714287"
         height="35"
         width="1"
         id="rect2987-23-1-1"
         style="fill:#ffffff;fill-opacity:1;fill-rule:nonzero;stroke:none" />
      <rect
         y="1051.2908"
         x="104.71429"
         height="35"
         width="1"
         id="rect2987-22-5-3"
         style="fill:#ffffff;fill-opacity:1;fill-rule:nonzero;stroke:none" />
      <rect
         y="1016.2907"
         x="139.71428"
         height="35"
         width="1"
         id="rect2987-89"
         style="fill:#ffffff;fill-opacity:1;fill-rule:nonzero;stroke:none" />
      <rect
         y="1016.2907"
         x="137.71428"
         height="35"
         width="1"
         id="rect2987-1-3"
         style="fill:#ffffff;fill-opacity:1;fill-rule:nonzero;stroke:none" />
      <rect
         y="1016.2907"
         x="135.71428"
         height="35"
         width="1"
         id="rect2987-7-4"
         style="fill:#ffffff;fill-opacity:1;fill-rule:nonzero;stroke:none" />
      <rect
         y="1016.2907"
         x="133.71428"
         height="35"
         width="1"
         id="rect2987-4-4"
         style="fill:#ffffff;fill-opacity:1;fill-rule:nonzero;stroke:none" />
      <rect
         y="1016.2907"
         x="131.71428"
         height="35"
         width="1"
         id="rect2987-0-6"
         style="fill:#ffffff;fill-opacity:1;fill-rule:nonzero;stroke:none" />
      <rect
         y="1016.2907"
         x="129.71428"
         height="35"
         width="1"
         id="rect2987-9-0"
         style="fill:#ffffff;fill-opacity:1;fill-rule:nonzero;stroke:none" />
      <rect
         y="1016.2907"
         x="127.71429"
         height="35"
         width="1"
         id="rect2987-48-66"
         style="fill:#ffffff;fill-opacity:1;fill-rule:nonzero;stroke:none" />
      <rect
         y="1016.2907"
         x="125.71429"
         height="35"
         width="1"
         id="rect2987-8-18"
         style="fill:#ffffff;fill-opacity:1;fill-rule:nonzero;stroke:none" />
      <rect
         y="1016.2907"
         x="123.71429"
         height="35"
         width="1"
         id="rect2987-2-4"
         style="fill:#ffffff;fill-opacity:1;fill-rule:nonzero;stroke:none" />
      <rect
         y="1016.2907"
         x="121.71429"
         height="35"
         width="1"
         id="rect2987-45-96"
         style="fill:#ffffff;fill-opacity:1;fill-rule:nonzero;stroke:none" />
      <rect
         y="1016.2907"
         x="119.71429"
         height="35"
         width="1"
         id="rect2987-5-3"
         style="fill:#ffffff;fill-opacity:1;fill-rule:nonzero;stroke:none" />
      <rect
         y="1016.2907"
         x="117.71429"
         height="35"
         width="1"
         id="rect2987-17-78"
         style="fill:#ffffff;fill-opacity:1;fill-rule:nonzero;stroke:none" />
      <rect
         y="1016.2907"
         x="115.71429"
         height="35"
         width="1"
         id="rect2987-11-8"
         style="fill:#ffffff;fill-opacity:1;fill-rule:nonzero;stroke:none" />
      <rect
         y="1016.2907"
         x="113.71429"
         height="35"
         width="1"
         id="rect2987-52-2"
         style="fill:#ffffff;fill-opacity:1;fill-rule:nonzero;stroke:none" />
      <rect
         y="1016.2907"
         x="111.71429"
         height="35"
         width="1"
         id="rect2987-76-9"
         style="fill:#ffffff;fill-opacity:1;fill-rule:nonzero;stroke:none" />
      <rect
         y="1016.2907"
         x="109.71429"
         height="35"
         width="1"
         id="rect2987-14-1"
         style="fill:#ffffff;fill-opacity:1;fill-rule:nonzero;stroke:none" />
      <rect
         y="1016.2907"
         x="107.71429"
         height="35"
         width="1"
         id="rect2987-23-3"
         style="fill:#ffffff;fill-opacity:1;fill-rule:nonzero;stroke:none" />
      <rect
         y="1016.2907"
         x="105.71429"
         height="35"
         width="1"
         id="rect2987-23-3-5"
         style="fill:#ffffff;fill-opacity:1;fill-rule:nonzero;stroke:none" />
    </g>
    <g
       style="display:inline;opacity:1"
       id="g6019"
       transform="matrix(0.54753587,0,0,0.54753587,-145.54133,612.35482)">
      <rect
         style="opacity:1;fill:url(#radialGradient6017);fill-opacity:1;stroke:none;stroke-width:1;stroke-linejoin:round;stroke-miterlimit:4;stroke-dasharray:none;stroke-opacity:1"
         id="rect5993"
         width="192.00002"
         height="192.00005"
         x="-1052.3622"
         y="-4.1864107e-05"
         ry="15.040837"
         transform="matrix(0,-1,1,0,0,0)"
         inkscape:export-filename="/home/zed/Desktop/ME_logo.png"
         inkscape:export-xdpi="295.63"
         inkscape:export-ydpi="295.63" />
      <rect
         transform="matrix(0,-1,1,0,0,0)"
         ry="14.942025"
         y="0.63064116"
         x="-1051.7314"
         height="190.73868"
         width="190.73866"
         id="rect5995"
         style="fill:#efefef;fill-opacity:1;stroke:none;stroke-width:1;stroke-linejoin:round;stroke-miterlimit:4;stroke-dasharray:none;stroke-opacity:1" />
      <g
         id="g5997"
         transform="matrix(1.1790598,0,0,1.1790598,-2294.9849,-406.40009)">
        <rect
           style="opacity:1;fill:#4caf50;fill-opacity:1;stroke:none;stroke-width:1.01303923;stroke-linejoin:round;stroke-miterlimit:4;stroke-dasharray:none;stroke-opacity:1"
           id="rect5999"
           width="124.21528"
           height="27.155283"
           x="-1217.9086"
           y="2050.5259"
           ry="13.577641"
           transform="matrix(0,-1,1,0,0,0)" />
        <path
           sodipodi:nodetypes="csccscc"
           inkscape:connector-curvature="0"
           id="path6001"
           d="m 1991.6445,1191.0831 72.4591,0 c 7.522,0 13.5776,6.0556 13.5776,13.5776 l 0,0 c 0,7.522 -6.0556,13.5777 -13.5776,13.5777 l -72.4591,0 z"
           style="fill:#333333;fill-opacity:1;stroke:none;stroke-width:1.01303923;stroke-linejoin:round;stroke-miterlimit:4;stroke-dasharray:none;stroke-opacity:1" />
        <path
           sodipodi:nodetypes="ccccc"
           inkscape:connector-curvature="0"
           style="fill:#333333;fill-opacity:1;stroke:none;stroke-width:1.01303923;stroke-linejoin:round;stroke-miterlimit:4;stroke-dasharray:none;stroke-opacity:1"
           d="m 1991.6444,1093.6933 72.4591,0 0,27.1552 -72.4591,0 z"
           id="path6004" />
        <rect
           y="1093.6934"
           x="1991.6444"
           height="26.831776"
           width="72.459076"
           id="rect6006"
           style="fill:#333333;fill-opacity:1;stroke:none;stroke-width:1.01303923;stroke-linejoin:round;stroke-miterlimit:4;stroke-dasharray:none;stroke-opacity:1" />
        <path
           style="opacity:1;fill:#f44336;fill-opacity:1;stroke:none;stroke-width:1.01303923;stroke-linejoin:round;stroke-miterlimit:4;stroke-dasharray:none;stroke-opacity:1"
           d="m 2021.4951,1153.9072 30.8381,-53.4133 c 3.761,-6.5142 12.0331,-8.7306 18.5474,-4.9696 6.5142,3.761 8.7307,12.0331 4.9697,18.5473 l -28.7619,49.8172 z"
           id="path6008"
           inkscape:connector-curvature="0"
           sodipodi:nodetypes="cssscc" />
        <rect
           ry="13.577641"
           y="1978.0669"
           x="-1218.2321"
           height="27.155283"
           width="124.86213"
           id="rect6010"
           style="fill:#4caf50;fill-opacity:1;stroke:none;stroke-width:1.01303923;stroke-linejoin:round;stroke-miterlimit:4;stroke-dasharray:none;stroke-opacity:1"
           transform="matrix(0,-1,1,0,0,0)" />
        <path
           style="fill:#f44336;fill-opacity:1;stroke:none;stroke-width:1.01303923;stroke-linejoin:round;stroke-miterlimit:4;stroke-dasharray:none;stroke-opacity:1"
           d="m 2007.9322,1162.3052 -28.0344,-48.5569 c -3.761,-6.5142 -1.5444,-14.7865 4.9699,-18.5475 6.5141,-3.761 14.7863,-1.5444 18.5473,4.9698 l 32.2686,55.8908 z"
           id="path6012"
           inkscape:connector-curvature="0"
           sodipodi:nodetypes="cssscc" />
        <path
           sodipodi:nodetypes="scsscss"
           inkscape:connector-curvature="0"
           id="path6015"
           d="m 2005.2221,1142.2233 58.8814,0 c 0,0 0,6.0556 0,13.5776 0,7.522 -6.0556,13.5777 -13.5777,13.5777 l -58.8814,0 0,-13.5777 c 0,-7.522 6.0557,-13.5776 13.5777,-13.5776 z"
           style="fill:#333333;fill-opacity:1;stroke:none;stroke-width:1.01303923;stroke-linejoin:round;stroke-miterlimit:4;stroke-dasharray:none;stroke-opacity:1" />
      </g>
    </g>
  </g>
</svg>
